<svg xmlns="http://www.w3.org/2000/svg" width="160" height="148" viewBox="0 0 160 148"><style>.st0{display:none;fill:#fff}.st1{fill:#152128}.st2{fill:#ee3124}.st3{fill:#fff}.st4{fill:none}.st5{fill:#cfd4d8}.st6{display:none}</style><path class="st5" d="M15.5 0C7 0 0 7.1 0 15.8v88.5c0 6.5 4 12.5 10 14.8l70 29 70-29c6-2.3 10-8.3 10-14.8V15.8C160 7.1 153 0 144.5 0h-129z"/><path class="st2" d="M22.2 8.2C14.6 8.2 8.4 14.4 8.4 22v77.7c0 5.7 3.6 10.9 8.9 12.9L80 138.1l63-25.6-.3.1c5.3-2 8.9-7.2 8.9-12.9V22c0-7.6-6.2-13.8-13.8-13.8H22.2z"/><path class="st1" d="M138.1 14.7c3.9 0 7.1 3.2 7.1 7.1v78.1c0 3-1.9 5.6-4.6 6.6L80 131.1l-60.7-24.6c-2.7-1-4.6-3.6-4.6-6.6V21.8c0-3.9 3.2-7.1 7.1-7.1h116.3z"/><path id="White_1_" class="st3" d="M23.2 96.5l-4.9-43.6 19.2-9.6h84.9l19.2 10.4-4.8 42.2L80 119z"/><path class="st2" d="M87.5 104.3l-10.7-6.5-5.3 6.7-1.1-10.7-8.7-5.8H70l-.2-3H66v-4.4h3.5l-.2-3.1v-.4l2.2 3.5h22.3V85H74.1l2 3.3 54.6-.1 3.7-31.1-12.5-6.2H38L25.5 57l3.3 35.1L80 109.6l16.9-5.3h-9.4zm6.2-24.9h-5V75h5v4.4zm31.1 5.5H97.1v-4.4h27.7v4.4zM97.1 58.4h27.7v4.4H97.1v-4.4zm0 5.6h4.4v15.1h-4.4V64zM66 58.4h27.7v4.4H66v-4.4zm0 5.5h4.9v4.4H66v-4.4zm0 5.5h27.7v4.4H66v-4.4zm-3.2 10h-5V75h5v4.4zm-27.7-21h27.7v4.4H35.1v-4.4zm0 5.5H40v4.4h-4.9v-4.4zm0 5.5h27.7v4.4H35.1v-4.4zm0 11.1h27.7v4.4H35.1v-4.4z"/><path class="st2" d="M83.8 89.6l-1.7 2.3h47.4l.9-.3.2-2zM100.8 102.8l7-2.7H84.9l1.8 2.7zM82.7 96.8l1.2 1.8h27.9l4.8-1.8zM81 93.4l-.3.5.9 1.4h39l4.9-1.9z"/><path class="st0" d="M134.3 43.3v.4h-.7v2h-.5v-2h-.7v-.4h1.9zM136 43.3h.7v2.4h-.4v-1.6-.2-.2l-.4 2h-.4l-.4-2v2h-.4v-2.4h.7l.4 1.9.2-1.9z"/><path class="st4" d="M101.9 22.9v5.6h.4c.5 0 .9-.1 1.1-.4s.3-.8.3-1.6v-1.8c0-.8-.1-1.3-.4-1.5-.1-.2-.6-.3-1.4-.3zM112.8 22.9v5.6h.4c.5 0 .9-.1 1.1-.4.2-.3.3-.8.3-1.6v-1.8c0-.8-.1-1.3-.4-1.5-.2-.2-.7-.3-1.4-.3zM46.7 30.8H48c-.2-1.9-.4-4.3-.6-7.2-.3 3.3-.6 5.7-.7 7.2z"/><path class="st3" d="M44 20.3h-9.5V23h2.7v15h4.1V23H44zM51.5 23h2.8v15h4V23H61v-2.7h-9.5zM45.1 20.4L42.3 38h3.4l.6-4.3h2.1l.4 4.3h4l-2.3-17.6h-5.4zm1.6 10.4c.1-1.5.4-3.9.7-7.2.2 2.9.4 5.2.6 7.2h-1.3zM65.7 29.6h4.1v-2.8h-4.1v-3.7h4.2v-2.7h-8.1V38H70v-2.8h-4.3zM93 30.6l-.1 3.8c0 .5-.4 1-1 1-.5 0-1-.4-1-1l-.1-3.6V20.4h-4v10.4c0 2 0 3.3.1 3.9.1.6.3 1.2.7 1.8.4.6 1 1 1.7 1.4.8.3 1.7.5 2.7.5.9 0 1.7-.1 2.4-.4.7-.3 1.2-.7 1.6-1.3.4-.6.7-1.1.7-1.7.1-.5.1-1.5.1-2.8V20.4H93v10.2zM102 20.4h-4.1V38h4.1v-6.8h1.1c4.5 0 4.8-2.8 4.8-4.3 0-1.6.3-4.2-.9-5.5-1.3-1.3-5-1-5-1zm1.8 6.2c0 .8-.1 1.4-.3 1.6s-.6.4-1.1.4h-.4V23c.8 0 1.2.1 1.5.3.2.2.4.7.4 1.5v1.8zM112.8 20.4h-4.1V38h4.1v-6.8h1.1c4.5 0 4.8-2.8 4.8-4.3 0-1.6.3-4.2-.9-5.5-1.2-1.3-5-1-5-1zm1.8 6.2c0 .8-.1 1.4-.3 1.6-.2.3-.6.4-1.1.4h-.4V23c.8 0 1.2.1 1.5.3.2.2.4.7.4 1.5v1.8zM123.7 20.4h-4.1V38h8.3v-2.8h-4.2zM132.2 20.4l-1.4 6.6-1.4-6.6h-3.9l3.3 11.2V38h4v-6.4l3.4-11.2zM30.5 20.1c-3.3-.4-7 .2-6.8 4.4.2 3.6 2.7 5 3.2 5.5.5.4 2.7 2.3 2.8 3.5.1 1.5-.4 2-1 2s-1-.4-1.1-1.6c-.1-1.3 0-2.8 0-2.8h-4v2.8s-.5 4.5 5.1 4.5c3.8 0 4.9-2.3 4.9-4.7 0-2.3-.3-3.2-2.6-5.4-2.7-2.6-3.3-2.3-3.3-4.5 0-1.2 2-1.2 2 .5-.1 1.7-.1 2.5-.1 2.5h4v-3c.2-.1-.1-3.3-3.1-3.7zM82.7 20.1c-3.3-.4-7 .2-6.8 4.4.2 3.6 2.7 5 3.2 5.5.5.4 2.7 2.3 2.8 3.5.1 1.5-.4 2-1 2s-1-.4-1.1-1.6c-.1-1.3 0-2.8 0-2.8h-4v2.8s-.5 4.5 5.1 4.5c3.8 0 4.9-2.3 4.9-4.7 0-2.3-.3-3.2-2.6-5.4-2.7-2.6-3.3-2.3-3.3-4.5 0-1.2 2-1.2 2 .5.1 1.6.1 2.4.1 2.4h4v-3s-.2-3.2-3.3-3.6z"/></svg>